<svg xmlns="http://www.w3.org/2000/svg" viewBox="0 0 1702.99 415.13"><defs><style>.cls-1{fill:#fff;}.cls-2{fill:none;stroke:#000;stroke-miterlimit:10;stroke-width:45px;}</style></defs><g id="Layer_2" data-name="Layer 2"><g id="Layer_1-2" data-name="Layer 1"><path d="M390.4,103.11c8-16.08,17.18-29.88,27.17-40.87-7.06-23.08-28-39.19-54.92-39.19-25,0-25,0-56.93,26.48l-6.19,6.88-67,58.34L182.85,56.41l-3-5c-25.16-28.37-25.16-28.37-50.13-28.37-36.76,0-71.2,30-76.67,66.73L23.24,289.57c-5.47,36.76,20.05,66.53,56.81,66.53s71-29.77,76.45-66.53L159.88,267c10.11,13.79,26.59,22.58,46.57,22.58s39.08-8.79,53.32-22.58l-3.37,22.58c-5.47,36.76,19.85,66.53,56.63,66.53,28.35,0,55.32-17.73,68.67-42.72-18-29.41-24.41-75.61-16.73-127.2C369.42,156.42,378.21,127.68,390.4,103.11Z"/><path d="M680.94,186.18c-5.65,38-3.69,73,4.94,100.61-7.85,11.5-16.44,20.71-25.34,26.95-23.07,24.78-73.83,42.36-130.39,42.36S427.89,338.52,412.2,313.74c-9-7.95-16-20.74-20.64-37-6.62-23.32-8.2-53.74-3.23-87.09s15.64-63.86,29.23-87.23c9.44-16.28,20.3-29.1,31.65-37,23.07-24.77,74-42.35,130.58-42.35S681.86,40.63,697.56,65.4c6.44,5.7,11.89,13.93,16.14,24.14q-3.81,6.48-7.33,13.57C694.18,127.68,685.37,156.42,680.94,186.18Z"/><path d="M1009.66,47.17a98.17,98.17,0,0,0-14.74,38.71l-8.28,55.52c-12.82,9.32-28.25,14.9-44.14,14.9H876c-18.51,0-35.85,15.09-38.61,33.6s10.12,33.4,28.63,33.4h66.47c15.9,0,29.66,5.62,39.68,15l-7.08,47.6a84.27,84.27,0,0,0,4.69,43.82c-14.5,16.15-35.37,26.59-57.12,26.59H846.1c-56.53,0-102.24-17.58-117.93-42.35-12.67-11.24-21.52-32.14-25.06-58.75-2.56-19.26-2.34-41.55,1.2-65.3a264.6,264.6,0,0,1,18.31-65.38c11.45-26.67,26.53-47.63,42.56-58.87,23.07-24.77,74-42.35,130.55-42.35h66.58C982.76,23.3,999.65,32.6,1009.66,47.17Z"/><path class="cls-1" d="M1351.37,89.23l-15.68,105.15-31.78,49a23.15,23.15,0,0,0-2,3.87A99.59,99.59,0,0,0,1287,286.08c-2.71,18,0,35.4,7.63,50.4-13.77,11.79-31.32,19.07-49.5,19.07-36.76,0-62.28-29.76-56.81-66.53,2.74-18.38-9.81-33.36-28.19-33.36s-35.6,15-38.34,33.36c-5.47,36.77-39.69,66.53-76.45,66.53-34.47,0-59.07-26.19-57.47-59.77a66.3,66.3,0,0,1,.66-6.76l1.29-8.7,27-181.24,1.47-9.85c.31-2.11.73-4.19,1.24-6.27,8.19-33.83,40.77-60.46,75.43-60.46,36.76,0,62.06,30,56.6,66.73-2.75,18.38,10,33.17,28.42,33.17s35.36-14.79,38.11-33.17c5.46-36.76,39.9-66.73,76.66-66.73S1356.84,52.47,1351.37,89.23Z"/><path d="M1327.3,250.66l31-47.73,94.55-145.07.39-.45c14.44-20.38,38.28-34.36,63.46-34.36,25,0,44.68,14,53,34.36l.27.76,68.6,196.06.8,2c4.34,9.79,5.85,21.18,4,33.37-5.48,36.76-39.68,66.53-76.45,66.53-24.77,0-44.17-13.39-52.78-33.37l-9.47-25.26-6.28-17.89a29.17,29.17,0,0,0-19-6.79,37.57,37.57,0,0,0-21,6.79l-28,42-.79,1.12c-14.37,20-37.92,33.37-62.5,33.37-17.25,0-32-6.56-42.28-17.31a54.85,54.85,0,0,1-13-22.81,62.53,62.53,0,0,1-1.54-26.41,76.93,76.93,0,0,1,14-33.37Z"/><path class="cls-2" d="M426.73,139.43c8-16.07,17.18-29.87,27.17-40.86-7.07-23.09-28-39.2-54.92-39.2-25,0-25,0-56.93,26.49l-6.19,6.88-67,58.34L219.18,92.74l-3-5C191,59.37,191,59.37,166,59.37c-36.77,0-71.2,30-76.67,66.73L59.56,325.89c-5.46,36.77,20.06,66.54,56.82,66.54s71-29.77,76.45-66.54l3.37-22.57c10.12,13.78,26.59,22.57,46.57,22.57s39.09-8.79,53.33-22.57l-3.38,22.57c-5.47,36.77,19.85,66.54,56.63,66.54,28.36,0,55.33-17.73,68.68-42.72-18-29.41-24.41-75.62-16.73-127.2C405.75,192.74,414.54,164,426.73,139.43Z"/><path class="cls-2" d="M717.26,222.51c-5.65,38-3.68,73,4.94,100.61-7.84,11.49-16.43,20.7-25.33,26.95-23.07,24.77-73.84,42.36-130.4,42.36s-102.25-17.59-118-42.36c-9-8-16-20.74-20.63-37-6.63-23.32-8.21-53.74-3.23-87.09s15.64-63.86,29.22-87.24c9.45-16.27,20.31-29.1,31.66-37,23.07-24.78,74-42.36,130.57-42.36S718.19,77,733.88,101.73c6.45,5.7,11.9,13.93,16.15,24.14-2.54,4.32-5,8.84-7.34,13.56C730.5,164,721.69,192.74,717.26,222.51Z"/><path class="cls-2" d="M1046,83.5a98.17,98.17,0,0,0-14.73,38.7L1023,177.73c-12.81,9.31-28.24,14.9-44.14,14.9H912.37c-18.51,0-35.85,15.09-38.61,33.6s10.11,33.4,28.62,33.4h66.48c15.9,0,29.65,5.62,39.68,15l-7.09,47.6a84.34,84.34,0,0,0,4.7,43.81c-14.51,16.15-35.37,26.6-57.12,26.6h-66.6c-56.53,0-102.24-17.58-117.93-42.35C751.82,339,743,318.13,739.44,291.53c-2.56-19.27-2.35-41.55,1.2-65.3a264.79,264.79,0,0,1,18.3-65.38c11.46-26.68,26.53-47.63,42.57-58.88,23.06-24.77,74-42.34,130.55-42.34h66.57C1019.08,59.63,1036,68.93,1046,83.5Z"/><path class="cls-2" d="M1387.7,125.56,1372,230.71l-31.78,49a23.15,23.15,0,0,0-2,3.87,99.59,99.59,0,0,0-14.87,38.87c-2.71,18,0,35.4,7.63,50.4-13.77,11.79-31.32,19.07-49.5,19.07-36.76,0-62.28-29.76-56.81-66.53,2.74-18.38-9.81-33.36-28.19-33.36s-35.6,15-38.34,33.36c-5.47,36.77-39.69,66.53-76.45,66.53-34.47,0-59.07-26.19-57.47-59.77a66.3,66.3,0,0,1,.66-6.76l1.29-8.7,27-181.24,1.47-9.85c.31-2.11.73-4.19,1.24-6.27,8.19-33.83,40.77-60.46,75.43-60.46,36.76,0,62.06,30,56.6,66.73-2.75,18.38,10,33.17,28.42,33.17s35.36-14.79,38.11-33.17c5.46-36.76,39.9-66.73,76.66-66.73S1393.17,88.8,1387.7,125.56Z"/><path class="cls-2" d="M1363.63,287l31-47.73,94.54-145.08.39-.44C1504,73.36,1527.84,59.37,1553,59.37c25,0,44.69,14,53,34.37l.28.76,68.6,196.05.8,2c4.34,9.79,5.84,21.18,4,33.36-5.49,36.77-39.69,66.54-76.45,66.54-24.77,0-44.17-13.39-52.78-33.37L1541,333.8l-6.28-17.89a29.2,29.2,0,0,0-19-6.8,37.62,37.62,0,0,0-21,6.8l-28,42-.78,1.13c-14.37,20-37.93,33.37-62.5,33.37-17.26,0-32-6.56-42.29-17.31a54.81,54.81,0,0,1-13-22.82,62.53,62.53,0,0,1-1.55-26.41,76.94,76.94,0,0,1,14-33.36Z"/><path class="cls-2" d="M423.1,135.8c8-16.07,17.18-29.88,27.17-40.87-7.07-23.08-28-39.19-54.93-39.19-25,0-25,0-56.93,26.48l-6.18,6.88-67,58.34L215.55,89.1l-3-5c-25.16-28.37-25.16-28.37-50.14-28.37-36.76,0-71.19,30-76.66,66.73L55.93,322.26C50.46,359,76,388.79,112.74,388.79s71-29.77,76.45-66.53l3.38-22.57c10.12,13.78,26.59,22.57,46.57,22.57s39.09-8.79,53.33-22.57l-3.38,22.57c-5.47,36.76,19.85,66.53,56.63,66.53,28.35,0,55.33-17.72,68.68-42.72-18-29.4-24.42-75.61-16.73-127.19C402.12,189.11,410.91,160.38,423.1,135.8Z"/><path class="cls-2" d="M713.63,218.88c-5.65,38-3.69,73,4.94,100.6-7.85,11.5-16.44,20.71-25.34,27-23.06,24.77-73.83,42.35-130.39,42.35s-102.26-17.58-118-42.35c-9-8-16-20.75-20.63-37-6.63-23.32-8.21-53.75-3.24-87.09s15.64-63.87,29.23-87.24c9.44-16.28,20.31-29.1,31.66-37,23.06-24.77,74-42.35,130.57-42.35S714.56,73.32,730.25,98.09c6.45,5.71,11.9,13.94,16.15,24.14q-3.82,6.49-7.34,13.57C726.87,160.38,718.06,189.11,713.63,218.88Z"/><path class="cls-2" d="M1042.35,79.87a98.07,98.07,0,0,0-14.74,38.7l-8.28,55.52c-12.82,9.32-28.24,14.9-44.14,14.9H908.74c-18.51,0-35.85,15.09-38.62,33.6S880.24,256,898.75,256h66.48c15.89,0,29.65,5.62,39.68,15l-7.09,47.61a84.35,84.35,0,0,0,4.69,43.81C988,378.55,967.15,389,945.39,389H878.8c-56.54,0-102.24-17.58-117.93-42.35-12.68-11.24-21.52-32.14-25.07-58.74-2.56-19.27-2.34-41.55,1.2-65.31a264.4,264.4,0,0,1,18.31-65.37c11.46-26.68,26.53-47.64,42.57-58.88C820.94,73.57,871.9,56,928.43,56H995C1015.45,56,1032.34,65.29,1042.35,79.87Z"/><path class="cls-2" d="M1384.06,121.92l-15.68,105.15-31.78,49a23.15,23.15,0,0,0-2,3.87,99.59,99.59,0,0,0-14.87,38.87c-2.71,18,0,35.4,7.63,50.4-13.77,11.79-31.32,19.07-49.5,19.07-36.76,0-62.28-29.76-56.81-66.53,2.74-18.38-9.81-33.36-28.19-33.36s-35.6,15-38.34,33.36c-5.47,36.77-39.69,66.53-76.45,66.53-34.47,0-59.07-26.19-57.47-59.77a66.3,66.3,0,0,1,.66-6.76l1.29-8.7,27-181.24,1.47-9.85c.31-2.11.73-4.19,1.24-6.27,8.19-33.83,40.77-60.46,75.43-60.46,36.76,0,62.06,30,56.6,66.73-2.75,18.38,10,33.17,28.42,33.17s35.36-14.79,38.11-33.17c5.46-36.76,39.9-66.73,76.66-66.73S1389.53,85.16,1384.06,121.92Z"/><path class="cls-2" d="M1360,283.36l31-47.74,94.55-145.07.39-.45c14.44-20.38,38.29-34.36,63.46-34.36,25,0,44.68,14,53,34.36l.28.76,68.6,196.06.79,2c4.34,9.79,5.85,21.17,4,33.36-5.48,36.76-39.68,66.53-76.44,66.53-24.78,0-44.18-13.38-52.78-33.36l-9.47-25.27-6.28-17.89a29.24,29.24,0,0,0-19-6.79,37.66,37.66,0,0,0-21,6.79l-28,42-.79,1.13c-14.36,20-37.92,33.36-62.5,33.36-17.25,0-32-6.55-42.28-17.31a54.66,54.66,0,0,1-13-22.81,62.36,62.36,0,0,1-1.55-26.41,76.89,76.89,0,0,1,14-33.36Z"/><path class="cls-2" d="M419.46,132.17c8-16.08,17.19-29.88,27.17-40.87-7.06-23.08-28-39.19-54.92-39.19-25,0-25,0-56.93,26.48l-6.19,6.88-67,58.34L211.91,85.47l-3-5c-25.16-28.37-25.16-28.37-50.14-28.37-36.76,0-71.2,30-76.66,66.73L52.3,318.63c-5.47,36.76,20,66.53,56.81,66.53s71-29.77,76.45-66.53l3.38-22.58c10.12,13.79,26.59,22.58,46.57,22.58s39.09-8.79,53.32-22.58l-3.37,22.58c-5.47,36.76,19.85,66.53,56.63,66.53,28.35,0,55.32-17.73,68.67-42.72-18-29.4-24.41-75.61-16.73-127.19C398.48,185.48,407.28,156.74,419.46,132.17Z"/><path class="cls-2" d="M710,215.25c-5.65,38-3.69,73,4.94,100.6-7.85,11.5-16.44,20.71-25.34,26.95-23.07,24.78-73.83,42.36-130.39,42.36S457,367.58,441.26,342.8c-9-7.95-16-20.74-20.63-37-6.63-23.32-8.21-53.74-3.24-87.09S433,154.87,446.62,131.5c9.44-16.28,20.3-29.1,31.65-37,23.07-24.77,74-42.35,130.58-42.35S710.92,69.69,726.62,94.46c6.44,5.71,11.89,13.93,16.14,24.14q-3.81,6.48-7.33,13.57C723.24,156.74,714.43,185.48,710,215.25Z"/><path class="cls-2" d="M1038.72,76.23A98.17,98.17,0,0,0,1024,114.94l-8.28,55.52c-12.82,9.32-28.25,14.9-44.14,14.9H905.1c-18.51,0-35.85,15.09-38.61,33.6s10.12,33.4,28.63,33.4h66.47c15.9,0,29.66,5.62,39.68,15L994.19,315a84.27,84.27,0,0,0,4.69,43.82c-14.5,16.15-35.37,26.59-57.12,26.59h-66.6c-56.53,0-102.24-17.58-117.93-42.35-12.67-11.24-21.52-32.14-25.06-58.75-2.56-19.26-2.34-41.55,1.2-65.3a264.6,264.6,0,0,1,18.31-65.38c11.46-26.67,26.53-47.63,42.56-58.87,23.07-24.77,74-42.35,130.56-42.35h66.57C1011.82,52.36,1028.71,61.66,1038.72,76.23Z"/><path class="cls-2" d="M1380.43,118.29l-15.68,105.15-31.78,49a23.15,23.15,0,0,0-2,3.87,99.59,99.59,0,0,0-14.87,38.87c-2.71,18,0,35.4,7.63,50.4-13.77,11.79-31.32,19.07-49.5,19.07-36.76,0-62.28-29.76-56.81-66.53,2.74-18.38-9.81-33.36-28.19-33.36s-35.6,15-38.34,33.36c-5.47,36.77-39.69,66.53-76.45,66.53-34.47,0-59.07-26.19-57.47-59.77a66.3,66.3,0,0,1,.66-6.76l1.29-8.7,27-181.24,1.47-9.85c.31-2.11.73-4.19,1.24-6.27,8.19-33.83,40.77-60.46,75.43-60.46,36.76,0,62.06,30,56.6,66.73-2.75,18.38,10,33.17,28.42,33.17s35.36-14.79,38.11-33.17c5.46-36.76,39.9-66.73,76.66-66.73S1385.9,81.53,1380.43,118.29Z"/><path class="cls-2" d="M1356.36,279.72l31-47.73L1481.9,86.92l.39-.45c14.44-20.38,38.29-34.36,63.46-34.36,25,0,44.68,14,53,34.36l.27.76,68.6,196.06.8,2c4.34,9.79,5.85,21.18,4,33.37-5.48,36.76-39.68,66.53-76.45,66.53-24.77,0-44.17-13.39-52.78-33.36l-9.46-25.27-6.28-17.89a29.2,29.2,0,0,0-19-6.79,37.57,37.57,0,0,0-21,6.79l-28,42-.79,1.13c-14.37,20-37.92,33.36-62.5,33.36-17.25,0-32-6.56-42.28-17.31a54.85,54.85,0,0,1-13-22.81,62.53,62.53,0,0,1-1.54-26.41,76.93,76.93,0,0,1,14-33.37Z"/><path class="cls-2" d="M415.83,128.54c8-16.08,17.18-29.88,27.17-40.87-7.06-23.09-28-39.2-54.92-39.2-25,0-25,0-56.93,26.49L325,81.84l-67,58.34L208.28,81.84l-3-5c-25.16-28.38-25.16-28.38-50.13-28.38-36.76,0-71.2,30-76.67,66.73L48.67,315c-5.47,36.76,20,66.53,56.81,66.53s71-29.77,76.45-66.53l3.38-22.58C195.42,306.21,211.9,315,231.88,315s39.08-8.79,53.32-22.58L281.82,315c-5.46,36.76,19.86,66.53,56.64,66.53,28.35,0,55.32-17.73,68.67-42.72-18-29.41-24.41-75.61-16.73-127.2C394.85,181.84,403.64,153.11,415.83,128.54Z"/><path class="cls-2" d="M706.37,211.61c-5.65,38-3.69,73,4.94,100.61-7.85,11.5-16.44,20.7-25.34,26.95C662.9,364,612.14,381.53,555.58,381.53s-102.26-17.58-118-42.36c-9-7.95-16-20.74-20.64-37-6.63-23.32-8.21-53.74-3.23-87.09S429.4,151.24,443,127.86c9.45-16.27,20.31-29.09,31.66-37,23.07-24.77,74-42.36,130.58-42.36S707.29,66.06,723,90.83c6.45,5.7,11.9,13.93,16.15,24.14q-3.81,6.48-7.34,13.57C719.61,153.11,710.8,181.84,706.37,211.61Z"/><path class="cls-2" d="M1035.09,72.6a98,98,0,0,0-14.74,38.7l-8.29,55.53c-12.81,9.31-28.24,14.9-44.14,14.9H901.47c-18.51,0-35.85,15.09-38.61,33.6s10.11,33.4,28.62,33.4H958c15.9,0,29.66,5.62,39.68,15l-7.09,47.6a84.38,84.38,0,0,0,4.7,43.82c-14.5,16.15-35.37,26.59-57.12,26.59h-66.6c-56.53,0-102.24-17.58-117.93-42.35-12.68-11.24-21.52-32.14-25.06-58.75-2.56-19.27-2.34-41.55,1.2-65.3A265,265,0,0,1,748,150c11.46-26.68,26.54-47.63,42.57-58.87,23.06-24.77,74-42.35,130.55-42.35h66.58C1008.18,48.73,1025.08,58,1035.09,72.6Z"/><path class="cls-2" d="M1376.8,114.66l-15.68,105.15-31.78,49a23.15,23.15,0,0,0-2,3.87,99.59,99.59,0,0,0-14.87,38.87c-2.71,18,0,35.4,7.63,50.4-13.77,11.79-31.32,19.07-49.5,19.07-36.76,0-62.28-29.76-56.81-66.53,2.74-18.38-9.81-33.36-28.19-33.36s-35.6,15-38.34,33.36c-5.47,36.77-39.69,66.53-76.45,66.53-34.47,0-59.07-26.19-57.47-59.77a66.3,66.3,0,0,1,.66-6.76l1.29-8.7,27-181.24,1.47-9.85c.31-2.11.73-4.19,1.24-6.27,8.19-33.83,40.77-60.46,75.43-60.46,36.76,0,62.06,30,56.6,66.73-2.75,18.38,10,33.17,28.42,33.17s35.36-14.79,38.11-33.17c5.46-36.76,39.9-66.73,76.66-66.73S1382.27,77.9,1376.8,114.66Z"/><path class="cls-2" d="M1352.73,276.09l31-47.73,94.55-145.07.39-.45c14.43-20.38,38.28-34.37,63.46-34.37,25,0,44.68,14,53,34.37l.28.76,68.6,196,.8,2c4.34,9.79,5.85,21.18,4,33.37-5.49,36.76-39.69,66.53-76.45,66.53-24.77,0-44.17-13.39-52.78-33.37l-9.47-25.26L1523.86,305a29.2,29.2,0,0,0-19-6.8,37.62,37.62,0,0,0-21,6.8l-28,42-.79,1.13c-14.37,20-37.93,33.37-62.5,33.37-17.26,0-32-6.56-42.28-17.31a54.85,54.85,0,0,1-13-22.81,62.38,62.38,0,0,1-1.54-26.41,76.91,76.91,0,0,1,14-33.37Z"/><path class="cls-2" d="M412.2,124.9c8-16.07,17.18-29.87,27.17-40.86-7.07-23.09-28-39.2-54.93-39.2-25,0-25,0-56.92,26.49l-6.19,6.88-67,58.34L204.65,78.21l-3-5c-25.16-28.37-25.16-28.37-50.13-28.37-36.77,0-71.2,30-76.67,66.73L45,311.36c-5.46,36.77,20.06,66.54,56.82,66.54s71-29.77,76.44-66.54l3.38-22.57c10.12,13.78,26.59,22.57,46.57,22.57s39.09-8.79,53.33-22.57l-3.38,22.57c-5.47,36.77,19.85,66.54,56.63,66.54,28.36,0,55.33-17.73,68.68-42.72-18-29.41-24.41-75.62-16.73-127.2C391.22,178.21,400,149.48,412.2,124.9Z"/><path class="cls-2" d="M702.73,208c-5.65,38-3.68,73,4.94,100.61-7.84,11.49-16.43,20.7-25.33,27-23.07,24.77-73.84,42.36-130.4,42.36s-102.25-17.59-118-42.36c-9-8-16-20.74-20.63-37-6.63-23.32-8.21-53.74-3.23-87.09s15.64-63.86,29.22-87.24c9.45-16.27,20.31-29.1,31.66-37,23.07-24.78,74-42.36,130.57-42.36S703.66,62.42,719.35,87.2c6.45,5.7,11.9,13.93,16.15,24.14-2.54,4.32-5,8.84-7.34,13.56C716,149.48,707.16,178.21,702.73,208Z"/><path class="cls-2" d="M1031.45,69a98.11,98.11,0,0,0-14.73,38.7l-8.29,55.52c-12.81,9.32-28.24,14.91-44.14,14.91H897.84c-18.51,0-35.85,15.09-38.61,33.6s10.11,33.4,28.62,33.4h66.48c15.9,0,29.65,5.61,39.68,15l-7.09,47.6a84.34,84.34,0,0,0,4.7,43.81c-14.51,16.15-35.37,26.6-57.12,26.6H867.9c-56.53,0-102.24-17.58-117.93-42.35-12.68-11.24-21.52-32.15-25.06-58.75-2.56-19.27-2.35-41.55,1.2-65.3a264.79,264.79,0,0,1,18.3-65.38c11.46-26.68,26.53-47.63,42.57-58.88C810,62.67,861,45.1,917.53,45.1H984.1C1004.55,45.1,1021.45,54.39,1031.45,69Z"/><path class="cls-2" d="M1373.17,111l-15.68,105.15-31.78,49a23.15,23.15,0,0,0-2,3.87,99.59,99.59,0,0,0-14.87,38.87c-2.71,18,0,35.4,7.63,50.4-13.77,11.79-31.32,19.07-49.5,19.07-36.76,0-62.28-29.76-56.81-66.53,2.74-18.38-9.81-33.36-28.19-33.36s-35.6,15-38.34,33.36c-5.47,36.77-39.69,66.53-76.45,66.53-34.47,0-59.07-26.19-57.47-59.77a66.3,66.3,0,0,1,.66-6.76l1.29-8.7,27-181.24,1.47-9.85c.31-2.11.73-4.19,1.24-6.27,8.19-33.83,40.77-60.46,75.43-60.46,36.76,0,62.06,30,56.6,66.73-2.75,18.38,10,33.17,28.42,33.17s35.36-14.79,38.11-33.17c5.46-36.76,39.9-66.73,76.66-66.73S1378.64,74.27,1373.17,111Z"/><path class="cls-2" d="M1349.1,272.46l31-47.73,94.55-145.08.39-.44c14.44-20.38,38.29-34.37,63.46-34.37,25,0,44.69,14,53,34.37l.28.76,68.6,196,.79,2c4.35,9.79,5.85,21.18,4,33.36-5.49,36.77-39.69,66.54-76.45,66.54-24.78,0-44.17-13.39-52.78-33.37l-9.47-25.26-6.28-17.9a29.24,29.24,0,0,0-19-6.79,37.68,37.68,0,0,0-21,6.79l-28,42-.78,1.13c-14.37,20-37.93,33.37-62.5,33.37-17.26,0-32-6.56-42.29-17.31a54.7,54.7,0,0,1-13-22.82,62.53,62.53,0,0,1-1.55-26.41,76.94,76.94,0,0,1,14-33.36Z"/><path class="cls-2" d="M408.57,121.27c8-16.07,17.18-29.88,27.17-40.87-7.07-23.08-28-39.19-54.93-39.19-25,0-25,0-56.93,26.48l-6.18,6.88-67,58.34L201,74.57l-3-5c-25.16-28.37-25.16-28.37-50.14-28.37-36.76,0-71.2,30-76.66,66.73L41.4,307.73c-5.47,36.76,20.05,66.53,56.81,66.53s71-29.77,76.45-66.53L178,285.16c10.12,13.78,26.59,22.57,46.57,22.57s39.09-8.79,53.33-22.57l-3.38,22.57c-5.47,36.76,19.85,66.53,56.63,66.53,28.35,0,55.33-17.72,68.68-42.72-18-29.4-24.42-75.61-16.73-127.19C387.59,174.58,396.38,145.85,408.57,121.27Z"/><path class="cls-2" d="M699.1,204.35c-5.65,38-3.69,73,4.94,100.6-7.85,11.5-16.44,20.71-25.34,27-23.06,24.77-73.83,42.35-130.39,42.35s-102.26-17.58-117.95-42.35c-9-8-16-20.75-20.63-37-6.63-23.32-8.21-53.75-3.24-87.09S422.13,144,435.72,120.6c9.44-16.28,20.31-29.1,31.66-37,23.06-24.77,74-42.35,130.57-42.35S700,58.79,715.72,83.56c6.45,5.71,11.9,13.94,16.15,24.14q-3.82,6.49-7.34,13.57C712.34,145.85,703.53,174.58,699.1,204.35Z"/><path class="cls-2" d="M1027.82,65.34a98.07,98.07,0,0,0-14.74,38.7l-8.28,55.52c-12.82,9.32-28.24,14.9-44.14,14.9H894.21c-18.51,0-35.85,15.09-38.62,33.6s10.12,33.4,28.63,33.4H950.7c15.89,0,29.65,5.62,39.68,15l-7.09,47.61A84.35,84.35,0,0,0,988,347.87c-14.5,16.15-35.36,26.59-57.12,26.59H864.27c-56.54,0-102.24-17.58-117.93-42.35-12.68-11.24-21.52-32.14-25.07-58.74-2.56-19.27-2.34-41.55,1.2-65.31a264.4,264.4,0,0,1,18.31-65.37c11.46-26.68,26.53-47.64,42.57-58.88,23.06-24.77,74-42.35,130.55-42.35h66.57C1000.92,41.46,1017.81,50.76,1027.82,65.34Z"/><path class="cls-2" d="M1369.53,107.39l-15.68,105.15-31.78,49a23.15,23.15,0,0,0-2,3.87,99.59,99.59,0,0,0-14.87,38.87c-2.71,18,0,35.4,7.63,50.4-13.77,11.79-31.32,19.07-49.5,19.07-36.76,0-62.28-29.76-56.81-66.53,2.74-18.38-9.81-33.36-28.19-33.36s-35.6,15-38.34,33.36c-5.47,36.77-39.69,66.53-76.45,66.53-34.47,0-59.07-26.19-57.47-59.77a66.3,66.3,0,0,1,.66-6.76l1.29-8.7,27-181.24,1.47-9.85c.31-2.11.73-4.19,1.24-6.27,8.19-33.83,40.77-60.46,75.43-60.46,36.76,0,62.06,30,56.6,66.73-2.75,18.38,10,33.17,28.42,33.17s35.36-14.79,38.11-33.17c5.46-36.76,39.9-66.73,76.66-66.73S1375,70.63,1369.53,107.39Z"/><path class="cls-2" d="M1345.47,268.83l31-47.74L1471,76l.39-.45c14.44-20.38,38.29-34.36,63.46-34.36,25,0,44.68,14,53,34.36l.28.76,68.6,196.06.79,2c4.34,9.79,5.85,21.17,4,33.36-5.48,36.76-39.68,66.53-76.44,66.53-24.78,0-44.18-13.38-52.78-33.36l-9.47-25.27-6.28-17.89a29.24,29.24,0,0,0-19-6.79,37.66,37.66,0,0,0-21,6.79l-28,42-.79,1.13c-14.36,20-37.92,33.36-62.5,33.36-17.25,0-32-6.55-42.28-17.31a54.66,54.66,0,0,1-13-22.81,62.36,62.36,0,0,1-1.55-26.41,76.89,76.89,0,0,1,14-33.36Z"/><path class="cls-2" d="M404.93,117.64c8-16.08,17.18-29.88,27.17-40.87-7.06-23.08-28-39.19-54.92-39.19-25,0-25,0-56.93,26.48l-6.19,6.88-67,58.34L197.38,70.94l-3-5C169.2,37.58,169.2,37.58,144.22,37.58c-36.76,0-71.2,30-76.66,66.73L37.77,304.1c-5.47,36.76,20,66.53,56.81,66.53s71-29.77,76.45-66.53l3.38-22.58C184.52,295.31,201,304.1,221,304.1s39.08-8.79,53.32-22.58l-3.37,22.58c-5.47,36.76,19.85,66.53,56.63,66.53,28.35,0,55.32-17.73,68.67-42.72-18-29.41-24.41-75.61-16.73-127.19C384,171,392.75,142.21,404.93,117.64Z"/><path class="cls-2" d="M695.47,200.72c-5.65,38-3.69,73,4.94,100.6-7.85,11.5-16.44,20.71-25.34,26.95-23.07,24.78-73.83,42.36-130.39,42.36s-102.26-17.58-117.95-42.36c-9-7.95-16-20.74-20.64-37-6.62-23.32-8.2-53.74-3.23-87.09S418.5,140.34,432.09,117c9.44-16.28,20.3-29.1,31.65-37,23.07-24.77,74-42.35,130.58-42.35S696.39,55.16,712.09,79.93c6.44,5.7,11.89,13.93,16.14,24.14q-3.81,6.48-7.33,13.57C708.71,142.21,699.9,171,695.47,200.72Z"/><path class="cls-2" d="M1024.19,61.7a98.17,98.17,0,0,0-14.74,38.71l-8.28,55.52c-12.82,9.32-28.25,14.9-44.14,14.9H890.57c-18.51,0-35.85,15.09-38.61,33.6s10.12,33.4,28.63,33.4h66.47c15.9,0,29.66,5.62,39.68,15l-7.08,47.6a84.27,84.27,0,0,0,4.69,43.82c-14.5,16.15-35.37,26.59-57.12,26.59h-66.6c-56.53,0-102.24-17.58-117.93-42.35-12.67-11.24-21.52-32.14-25.06-58.75-2.56-19.26-2.34-41.55,1.2-65.3a264.6,264.6,0,0,1,18.31-65.38c11.45-26.67,26.53-47.63,42.56-58.87,23.07-24.77,74-42.35,130.56-42.35h66.57C997.29,37.83,1014.18,47.13,1024.19,61.7Z"/><path class="cls-2" d="M1365.9,103.76l-15.68,105.15-31.78,49a23.15,23.15,0,0,0-2,3.87,99.59,99.59,0,0,0-14.87,38.87c-2.71,18,0,35.4,7.63,50.4-13.77,11.79-31.32,19.07-49.5,19.07-36.76,0-62.28-29.76-56.81-66.53,2.74-18.38-9.81-33.36-28.19-33.36s-35.6,15-38.34,33.36c-5.47,36.77-39.69,66.53-76.45,66.53-34.47,0-59.07-26.19-57.47-59.77a66.3,66.3,0,0,1,.66-6.76l1.29-8.7,27-181.24,1.47-9.85c.31-2.11.73-4.19,1.24-6.27,8.19-33.83,40.77-60.46,75.43-60.46,36.76,0,62.06,30,56.6,66.73-2.75,18.38,10,33.17,28.42,33.17s35.36-14.79,38.11-33.17C1238.1,67,1272.54,37,1309.3,37S1371.37,67,1365.9,103.76Z"/><path class="cls-2" d="M1341.83,265.19l31-47.73,94.55-145.07.39-.45c14.44-20.38,38.29-34.36,63.46-34.36,25,0,44.68,14,53,34.36l.27.76,68.6,196.06.8,2c4.34,9.79,5.85,21.18,4,33.37-5.48,36.76-39.68,66.53-76.45,66.53-24.77,0-44.17-13.39-52.78-33.37L1519.24,312,1513,294.11a29.2,29.2,0,0,0-19-6.79,37.57,37.57,0,0,0-21,6.79l-28,42-.79,1.12c-14.37,20-37.92,33.37-62.5,33.37-17.25,0-32-6.56-42.28-17.31a54.85,54.85,0,0,1-13-22.81,62.53,62.53,0,0,1-1.54-26.41,76.93,76.93,0,0,1,14-33.37Z"/><path class="cls-2" d="M401.3,114c8-16.08,17.18-29.88,27.17-40.87-7.06-23.09-28-39.2-54.92-39.2-25,0-25,0-56.93,26.49l-6.19,6.88-67,58.34L193.75,67.31l-3-5c-25.16-28.38-25.16-28.38-50.13-28.38-36.76,0-71.2,30-76.67,66.73L34.14,300.47C28.67,337.23,54.19,367,91,367s71-29.77,76.45-66.53l3.38-22.58c10.11,13.79,26.59,22.58,46.57,22.58s39.08-8.79,53.32-22.58l-3.38,22.58C261.83,337.23,287.15,367,323.93,367c28.35,0,55.32-17.73,68.67-42.72-18-29.41-24.41-75.61-16.73-127.2C380.32,167.31,389.11,138.58,401.3,114Z"/><path class="cls-2" d="M691.83,197.08c-5.64,38-3.68,73,4.95,100.61-7.85,11.49-16.44,20.7-25.34,26.95C648.37,349.42,597.61,367,541.05,367S438.79,349.42,423.1,324.64c-9-7.95-16-20.74-20.64-37-6.63-23.32-8.21-53.74-3.23-87.09s15.64-63.86,29.22-87.24c9.45-16.27,20.31-29.09,31.66-37,23.07-24.78,74-42.36,130.58-42.36S692.76,51.52,708.45,76.3c6.45,5.7,11.9,13.93,16.15,24.14q-3.81,6.48-7.34,13.57C705.08,138.58,696.27,167.31,691.83,197.08Z"/><path class="cls-2" d="M1020.56,58.07a98,98,0,0,0-14.74,38.7l-8.29,55.53c-12.81,9.31-28.24,14.9-44.14,14.9H886.94c-18.51,0-35.85,15.09-38.61,33.6s10.11,33.4,28.62,33.4h66.48c15.9,0,29.66,5.62,39.68,15L976,296.79a84.33,84.33,0,0,0,4.7,43.81c-14.5,16.16-35.37,26.6-57.12,26.6H857c-56.53,0-102.24-17.58-117.93-42.35-12.68-11.24-21.52-32.14-25.06-58.75-2.56-19.27-2.34-41.55,1.2-65.3a265,265,0,0,1,18.3-65.38c11.46-26.68,26.54-47.63,42.57-58.87,23.06-24.77,74-42.35,130.55-42.35h66.58C993.65,34.2,1010.55,43.5,1020.56,58.07Z"/><path class="cls-2" d="M1362.27,100.13l-15.68,105.15-31.78,49a23.15,23.15,0,0,0-2,3.87A99.59,99.59,0,0,0,1297.9,297c-2.71,18,0,35.4,7.63,50.4-13.77,11.79-31.32,19.07-49.5,19.07-36.76,0-62.28-29.76-56.81-66.53,2.74-18.38-9.81-33.36-28.19-33.36s-35.6,15-38.34,33.36c-5.47,36.77-39.69,66.53-76.45,66.53-34.47,0-59.07-26.19-57.47-59.77a66.3,66.3,0,0,1,.66-6.76l1.29-8.7,27-181.24,1.47-9.85c.31-2.11.73-4.19,1.24-6.27,8.19-33.83,40.77-60.46,75.43-60.46,36.76,0,62.06,30,56.6,66.73-2.75,18.38,10,33.17,28.42,33.17s35.36-14.79,38.11-33.17c5.46-36.76,39.9-66.73,76.66-66.73S1367.74,63.37,1362.27,100.13Z"/><path class="cls-2" d="M1338.2,261.56l31-47.73,94.55-145.07.38-.45c14.44-20.38,38.29-34.37,63.47-34.37,25,0,44.68,14,53,34.37l.28.76,68.6,196.05.8,2c4.34,9.79,5.85,21.18,4,33.37-5.49,36.76-39.69,66.53-76.45,66.53-24.77,0-44.17-13.39-52.78-33.37l-9.47-25.26-6.28-17.89a29.2,29.2,0,0,0-19-6.8,37.62,37.62,0,0,0-21,6.8l-28,42-.79,1.13c-14.37,20-37.93,33.37-62.5,33.37-17.26,0-32-6.56-42.28-17.31a54.85,54.85,0,0,1-13-22.81,62.38,62.38,0,0,1-1.54-26.41,76.91,76.91,0,0,1,14-33.37Z"/><path class="cls-2" d="M397.67,110.37c8-16.07,17.18-29.88,27.17-40.86-7.07-23.09-28-39.2-54.93-39.2-25,0-25,0-56.93,26.48l-6.18,6.89-67,58.34L190.12,63.68l-3-5C161.93,30.31,161.93,30.31,137,30.31c-36.77,0-71.2,30-76.67,66.73L30.5,296.83c-5.46,36.77,20,66.53,56.82,66.53s71-29.76,76.44-66.53l3.38-22.57c10.12,13.78,26.59,22.57,46.57,22.57S252.8,288,267,274.26l-3.38,22.57c-5.47,36.77,19.85,66.53,56.63,66.53,28.36,0,55.33-17.72,68.68-42.71-18-29.41-24.41-75.62-16.73-127.2C376.69,163.68,385.48,135,397.67,110.37Z"/><path class="cls-2" d="M688.2,193.45c-5.65,38-3.68,73,4.94,100.6-7.84,11.5-16.43,20.71-25.33,27-23.07,24.77-73.84,42.35-130.4,42.35S435.16,345.78,419.46,321c-9-8-16-20.74-20.63-37-6.63-23.32-8.21-53.75-3.23-87.09s15.64-63.86,29.22-87.24c9.45-16.27,20.31-29.1,31.66-37,23.07-24.78,74-42.36,130.57-42.36S689.13,47.89,704.82,72.67c6.45,5.7,11.9,13.93,16.15,24.14-2.54,4.32-5,8.84-7.34,13.56C701.44,135,692.63,163.68,688.2,193.45Z"/><path class="cls-2" d="M1016.92,54.44a98.28,98.28,0,0,0-14.74,38.7l-8.28,55.52c-12.82,9.32-28.24,14.91-44.14,14.91H883.31c-18.51,0-35.85,15.09-38.61,33.6s10.11,33.4,28.62,33.4H939.8c15.9,0,29.65,5.61,39.68,15l-7.09,47.6a84.34,84.34,0,0,0,4.7,43.81c-14.51,16.15-35.37,26.6-57.12,26.6h-66.6c-56.53,0-102.24-17.58-117.93-42.35-12.68-11.25-21.52-32.15-25.06-58.75-2.56-19.27-2.35-41.55,1.2-65.3a264.79,264.79,0,0,1,18.3-65.38c11.46-26.68,26.53-47.63,42.57-58.88,23.06-24.77,74-42.34,130.55-42.34h66.57C990,30.57,1006.92,39.86,1016.92,54.44Z"/><path class="cls-2" d="M1358.64,96.5,1343,201.65l-31.78,49a23.15,23.15,0,0,0-2,3.87,99.59,99.59,0,0,0-14.87,38.87c-2.71,18,0,35.4,7.63,50.4-13.77,11.79-31.32,19.07-49.5,19.07-36.76,0-62.28-29.76-56.81-66.53,2.74-18.38-9.81-33.36-28.19-33.36s-35.6,15-38.34,33.36c-5.47,36.77-39.69,66.53-76.45,66.53-34.47,0-59.07-26.19-57.47-59.77a66.3,66.3,0,0,1,.66-6.76l1.29-8.7,27-181.24,1.47-9.85c.31-2.11.73-4.19,1.24-6.27,8.19-33.83,40.77-60.46,75.43-60.46,36.76,0,62.06,30,56.6,66.73-2.75,18.38,10,33.17,28.42,33.17s35.36-14.79,38.11-33.17c5.46-36.76,39.9-66.73,76.66-66.73S1364.11,59.74,1358.64,96.5Z"/><path class="cls-2" d="M1334.57,257.93l31-47.73L1460.1,65.12l.39-.45c14.44-20.37,38.29-34.36,63.46-34.36,25,0,44.68,14,53,34.36l.28.77,68.6,196.05.79,2c4.35,9.79,5.85,21.18,4,33.36-5.49,36.77-39.69,66.53-76.45,66.53-24.78,0-44.17-13.38-52.78-33.36L1512,304.73l-6.28-17.89a29.24,29.24,0,0,0-19-6.79,37.68,37.68,0,0,0-21,6.79l-28,42-.79,1.13c-14.36,20-37.92,33.36-62.49,33.36-17.26,0-32-6.55-42.29-17.3a54.76,54.76,0,0,1-13-22.82,62.53,62.53,0,0,1-1.55-26.41,76.94,76.94,0,0,1,14-33.36Z"/><path class="cls-2" d="M394,106.74c8-16.07,17.19-29.88,27.18-40.87-7.07-23.08-28-39.19-54.93-39.19-25,0-25,0-56.93,26.48L303.17,60l-67,58.34L186.49,60l-3-5C158.3,26.68,158.3,26.68,133.32,26.68c-36.76,0-71.2,30-76.66,66.73L26.87,293.2C21.4,330,46.92,359.73,83.68,359.73s71-29.77,76.45-66.53l3.38-22.58c10.12,13.79,26.59,22.58,46.57,22.58s39.09-8.79,53.33-22.58L260,293.2c-5.47,36.76,19.85,66.53,56.63,66.53C345,359.73,372,342,385.33,317c-18-29.4-24.41-75.61-16.72-127.19C373.06,160.05,381.85,131.31,394,106.74Z"/><path class="cls-2" d="M684.57,189.82c-5.65,38-3.69,73,4.94,100.6-7.85,11.5-16.44,20.71-25.34,27-23.06,24.77-73.83,42.35-130.39,42.35s-102.26-17.58-117.95-42.35c-9-8-16-20.75-20.63-37-6.63-23.32-8.21-53.75-3.24-87.1s15.64-63.86,29.23-87.23c9.44-16.28,20.3-29.1,31.66-37,23.06-24.77,74-42.35,130.57-42.35S685.5,44.26,701.19,69c6.45,5.71,11.9,13.93,16.15,24.14q-3.83,6.49-7.34,13.57C697.81,131.31,689,160.05,684.57,189.82Z"/><path class="cls-2" d="M1013.29,50.81a98.07,98.07,0,0,0-14.74,38.7L990.27,145c-12.82,9.32-28.24,14.9-44.14,14.9H879.68c-18.51,0-35.85,15.09-38.62,33.6s10.12,33.4,28.63,33.4h66.47c15.9,0,29.66,5.62,39.69,15l-7.09,47.61a84.35,84.35,0,0,0,4.69,43.81c-14.5,16.15-35.36,26.59-57.12,26.59H849.74c-56.54,0-102.24-17.58-117.94-42.35-12.67-11.24-21.51-32.14-25.06-58.74-2.56-19.27-2.34-41.55,1.2-65.31a264.4,264.4,0,0,1,18.31-65.37c11.46-26.68,26.53-47.64,42.57-58.88,23.06-24.77,74-42.35,130.55-42.35h66.57C986.39,26.93,1003.28,36.23,1013.29,50.81Z"/><path class="cls-2" d="M1355,92.86,1339.32,198l-31.78,49a23.15,23.15,0,0,0-2,3.87,99.59,99.59,0,0,0-14.87,38.87c-2.71,18,0,35.4,7.63,50.4-13.77,11.79-31.32,19.07-49.5,19.07-36.76,0-62.28-29.76-56.81-66.53,2.74-18.38-9.81-33.36-28.19-33.36s-35.6,15-38.34,33.36c-5.47,36.77-39.69,66.53-76.45,66.53-34.47,0-59.07-26.19-57.47-59.77a66.3,66.3,0,0,1,.66-6.76l1.29-8.7,27-181.24,1.47-9.85c.31-2.11.73-4.19,1.24-6.27,8.19-33.83,40.77-60.46,75.43-60.46,36.76,0,62.06,30,56.6,66.73-2.75,18.38,10,33.17,28.42,33.17s35.36-14.79,38.11-33.17c5.46-36.76,39.9-66.73,76.66-66.73S1360.47,56.1,1355,92.86Z"/><path class="cls-2" d="M1330.94,254.3l31-47.74,94.55-145.07.39-.45c14.44-20.38,38.29-34.36,63.46-34.36,25,0,44.68,14,53,34.36l.28.76,68.6,196.06.79,2c4.34,9.79,5.85,21.17,4,33.36-5.48,36.76-39.68,66.53-76.44,66.53-24.78,0-44.18-13.38-52.79-33.36l-9.46-25.27-6.28-17.89a29.24,29.24,0,0,0-19-6.79,37.66,37.66,0,0,0-21,6.79l-28,42-.79,1.13c-14.36,20-37.92,33.36-62.5,33.36-17.25,0-32-6.55-42.28-17.31a54.66,54.66,0,0,1-13-22.81A62.36,62.36,0,0,1,1314,293.2a76.89,76.89,0,0,1,14-33.36Z"/><path class="cls-2" d="M390.4,103.11c8-16.08,17.18-29.88,27.17-40.87-7.06-23.08-28-39.19-54.92-39.19-25,0-25,0-56.93,26.48l-6.19,6.88-67,58.34L182.85,56.41l-3-5c-25.16-28.37-25.16-28.37-50.13-28.37-36.76,0-71.2,30-76.67,66.73L23.24,289.57c-5.47,36.76,20.05,66.53,56.81,66.53s71-29.77,76.45-66.53L159.88,267c10.11,13.79,26.59,22.58,46.57,22.58s39.08-8.79,53.32-22.58l-3.37,22.58c-5.47,36.76,19.85,66.53,56.63,66.53,28.35,0,55.32-17.73,68.67-42.72-18-29.41-24.41-75.61-16.73-127.2C369.42,156.42,378.21,127.68,390.4,103.11Z"/><path class="cls-2" d="M680.94,186.18c-5.65,38-3.69,73,4.94,100.61-7.85,11.5-16.44,20.71-25.34,26.95-23.07,24.78-73.83,42.36-130.39,42.36S427.89,338.52,412.2,313.74c-9-7.95-16-20.74-20.64-37-6.62-23.32-8.2-53.74-3.23-87.09s15.64-63.86,29.23-87.23c9.44-16.28,20.3-29.1,31.65-37,23.07-24.77,74-42.35,130.58-42.35S681.86,40.63,697.56,65.4c6.44,5.7,11.89,13.93,16.14,24.14q-3.81,6.48-7.33,13.57C694.18,127.68,685.37,156.42,680.94,186.18Z"/><path class="cls-2" d="M1009.66,47.17a98.17,98.17,0,0,0-14.74,38.71l-8.28,55.52c-12.82,9.32-28.25,14.9-44.14,14.9H876c-18.51,0-35.85,15.09-38.61,33.6s10.12,33.4,28.63,33.4h66.47c15.9,0,29.66,5.62,39.68,15l-7.08,47.6a84.27,84.27,0,0,0,4.69,43.82c-14.5,16.15-35.37,26.59-57.12,26.59H846.1c-56.53,0-102.24-17.58-117.93-42.35-12.67-11.24-21.52-32.14-25.06-58.75-2.56-19.26-2.34-41.55,1.2-65.3a264.6,264.6,0,0,1,18.31-65.38c11.45-26.67,26.53-47.63,42.56-58.87,23.07-24.77,74-42.35,130.55-42.35h66.58C982.76,23.3,999.65,32.6,1009.66,47.17Z"/><path class="cls-2" d="M1351.37,89.23l-15.68,105.15-31.78,49a23.15,23.15,0,0,0-2,3.87A99.59,99.59,0,0,0,1287,286.08c-2.71,18,0,35.4,7.63,50.4-13.77,11.79-31.32,19.07-49.5,19.07-36.76,0-62.28-29.76-56.81-66.53,2.74-18.38-9.81-33.36-28.19-33.36s-35.6,15-38.34,33.36c-5.47,36.77-39.69,66.53-76.45,66.53-34.47,0-59.07-26.19-57.47-59.77a66.3,66.3,0,0,1,.66-6.76l1.29-8.7,27-181.24,1.47-9.85c.31-2.11.73-4.19,1.24-6.27,8.19-33.83,40.77-60.46,75.43-60.46,36.76,0,62.06,30,56.6,66.73-2.75,18.38,10,33.17,28.42,33.17s35.36-14.79,38.11-33.17c5.46-36.76,39.9-66.73,76.66-66.73S1356.84,52.47,1351.37,89.23Z"/><path class="cls-2" d="M1327.3,250.66l31-47.73,94.55-145.07.39-.45c14.44-20.38,38.28-34.36,63.46-34.36,25,0,44.68,14,53,34.36l.27.76,68.6,196.06.8,2c4.34,9.79,5.85,21.18,4,33.37-5.48,36.76-39.68,66.53-76.45,66.53-24.77,0-44.17-13.39-52.78-33.37l-9.47-25.26-6.28-17.89a29.17,29.17,0,0,0-19-6.79,37.57,37.57,0,0,0-21,6.79l-28,42-.79,1.12c-14.37,20-37.92,33.37-62.5,33.37-17.25,0-32-6.56-42.28-17.31a54.85,54.85,0,0,1-13-22.81,62.53,62.53,0,0,1-1.54-26.41,76.93,76.93,0,0,1,14-33.37Z"/><path class="cls-1" d="M390.4,103.11c8-16.08,17.18-29.88,27.17-40.87-7.06-23.08-28-39.19-54.92-39.19-25,0-25,0-56.93,26.48l-6.19,6.88-67,58.34L182.85,56.41l-3-5c-25.16-28.37-25.16-28.37-50.13-28.37-36.76,0-71.2,30-76.67,66.73L23.24,289.57c-5.47,36.76,20.05,66.53,56.81,66.53s71-29.77,76.45-66.53L159.88,267c10.11,13.79,26.59,22.58,46.57,22.58s39.08-8.79,53.32-22.58l-3.37,22.58c-5.47,36.76,19.85,66.53,56.63,66.53,28.35,0,55.32-17.73,68.67-42.72-18-29.41-24.41-75.61-16.73-127.2C369.42,156.42,378.21,127.68,390.4,103.11Z"/><path class="cls-1" d="M680.94,186.18c-5.65,38-3.69,73,4.94,100.61-7.85,11.5-16.44,20.71-25.34,26.95-23.07,24.78-73.83,42.36-130.39,42.36S427.89,338.52,412.2,313.74c-9-7.95-16-20.74-20.64-37-6.62-23.32-8.2-53.74-3.23-87.09s15.64-63.86,29.23-87.23c9.44-16.28,20.3-29.1,31.65-37,23.07-24.77,74-42.35,130.58-42.35S681.86,40.63,697.56,65.4c6.44,5.7,11.89,13.93,16.14,24.14q-3.81,6.48-7.33,13.57C694.18,127.68,685.37,156.42,680.94,186.18Z"/><path class="cls-1" d="M1009.66,47.17a98.17,98.17,0,0,0-14.74,38.71l-8.28,55.52c-12.82,9.32-28.25,14.9-44.14,14.9H876c-18.51,0-35.85,15.09-38.61,33.6s10.12,33.4,28.63,33.4h66.47c15.9,0,29.66,5.62,39.68,15l-7.08,47.6a84.27,84.27,0,0,0,4.69,43.82c-14.5,16.15-35.37,26.59-57.12,26.59H846.1c-56.53,0-102.24-17.58-117.93-42.35-12.67-11.24-21.52-32.14-25.06-58.75-2.56-19.26-2.34-41.55,1.2-65.3a264.6,264.6,0,0,1,18.31-65.38c11.45-26.67,26.53-47.63,42.56-58.87,23.07-24.77,74-42.35,130.55-42.35h66.58C982.76,23.3,999.65,32.6,1009.66,47.17Z"/><path class="cls-1" d="M1351.37,89.23l-15.68,105.15-31.78,49a23.15,23.15,0,0,0-2,3.87A99.59,99.59,0,0,0,1287,286.08c-2.71,18,0,35.4,7.63,50.4-13.77,11.79-31.32,19.07-49.5,19.07-36.76,0-62.28-29.76-56.81-66.53,2.74-18.38-9.81-33.36-28.19-33.36s-35.6,15-38.34,33.36c-5.47,36.77-39.69,66.53-76.45,66.53-34.47,0-59.07-26.19-57.47-59.77a66.3,66.3,0,0,1,.66-6.76l1.29-8.7,27-181.24,1.47-9.85c.31-2.11.73-4.19,1.24-6.27,8.19-33.83,40.77-60.46,75.43-60.46,36.76,0,62.06,30,56.6,66.73-2.75,18.38,10,33.17,28.42,33.17s35.36-14.79,38.11-33.17c5.46-36.76,39.9-66.73,76.66-66.73S1356.84,52.47,1351.37,89.23Z"/><path class="cls-1" d="M1327.3,250.66l31-47.73,94.55-145.07.39-.45c14.44-20.38,38.28-34.36,63.46-34.36,25,0,44.68,14,53,34.36l.27.76,68.6,196.06.8,2c4.34,9.79,5.85,21.18,4,33.37-5.48,36.76-39.68,66.53-76.45,66.53-24.77,0-44.17-13.39-52.78-33.37l-9.47-25.26-6.28-17.89a29.17,29.17,0,0,0-19-6.79,37.57,37.57,0,0,0-21,6.79l-28,42-.79,1.12c-14.37,20-37.92,33.37-62.5,33.37-17.25,0-32-6.56-42.28-17.31a54.85,54.85,0,0,1-13-22.81,62.53,62.53,0,0,1-1.54-26.41,76.93,76.93,0,0,1,14-33.37Z"/></g></g></svg>